<svg width="26" height="35" viewBox="0 0 26 35" fill="none" xmlns="http://www.w3.org/2000/svg">
<rect width="25.5451" height="35" fill="#17212B"/>
<path fill-rule="evenodd" clip-rule="evenodd" d="M4.25752 2.91669H21.2876C22.4633 2.91669 23.4163 4.22252 23.4163 5.83335V29.1667C23.4163 30.7775 22.4633 32.0834 21.2876 32.0834H4.25752C3.08184 32.0834 2.12876 30.7775 2.12876 29.1667V5.83335C2.12876 4.22252 3.08184 2.91669 4.25752 2.91669ZM4.25752 5.83335V11.6667H11.7082L11.7082 5.83335H4.25752ZM13.8369 5.83335L13.8369 20.4167H21.2876V23.3334H13.8369L13.8369 29.1667H21.2876V5.83335H13.8369ZM11.7082 29.1667L11.7082 14.5834H4.25752V29.1667H11.7082Z" fill="#E4E4E4"/>
</svg>
